<svg xmlns="http://www.w3.org/2000/svg" viewBox="0 0 160 160" role="img" aria-label="米米 厨师头像">

<defs>
  <filter id="softShadow" x="-20%" y="-20%" width="140%" height="140%">
    <feDropShadow dx="0" dy="5" stdDeviation="4" flood-color="#5c3b1f" flood-opacity=".22"/>
  </filter>
</defs>

<circle cx="80" cy="80" r="72" fill="#fff1cc" filter="url(#softShadow)"/>
<path d="M45 59c-14-9-9-30 9-29 5-16 29-16 35-1 17-7 34 12 24 28 16 4 16 28-1 31H47c-17-2-18-24-2-29Z" fill="#fffaf0" stroke="#d9b36a" stroke-width="4"/>
<circle cx="80" cy="88" r="44" fill="#ffd9bd"/>
<path d="M43 83c5-25 22-37 50-34 16 2 28 13 33 34-16-10-28-13-45-23-13 12-25 18-38 23Z" fill="#3f2d24"/>
<circle cx="64" cy="89" r="6" fill="#3b2a22"/><circle cx="96" cy="89" r="6" fill="#3b2a22"/>
<path d="M68 108c9 7 17 7 25 0" fill="none" stroke="#bf5b4e" stroke-width="5" stroke-linecap="round"/>
<path d="M42 121c11 18 66 18 77 0-14-18-63-18-77 0Z" fill="#f29d58"/>
<path d="M111 113c13 0 22-8 22-18H88c0 10 9 18 23 18Z" fill="#fff7e8" stroke="#8b5e34" stroke-width="4"/>
<text x="80" y="148" text-anchor="middle" font-size="18" font-weight="700" fill="#4d3728">米米</text>
</svg>
